<svg width="23" height="23" viewBox="0 0 23 23" fill="none" xmlns="http://www.w3.org/2000/svg">
<path d="M10.6375 0C5.78631 0.00472662 3.27629 0.0915193 1.68391 1.68391C0.0915193 3.27629 0.00472662 5.78631 0 10.6375H5.65069C5.24706 10.1334 4.94548 9.53868 4.78103 8.88084C4.16202 6.40481 6.40481 4.16202 8.88084 4.78103C9.53868 4.94548 10.1334 5.24706 10.6375 5.65069V0Z" fill="white"/>
<path d="M0 12.3626C0.00472662 17.2137 0.0915193 19.7237 1.68391 21.3161C3.27629 22.9085 5.78631 22.9953 10.6375 23V13.9423C9.74086 15.7332 7.88897 16.9627 5.74987 16.9627C5.27351 16.9627 4.88735 16.5765 4.88735 16.1002C4.88735 15.6238 5.27351 15.2377 5.74987 15.2377C7.51722 15.2377 8.99808 14.0109 9.38745 12.3626H0Z" fill="white"/>
<path d="M12.3626 23C17.2137 22.9953 19.7237 22.9085 21.3161 21.3161C22.9085 19.7237 22.9953 17.2137 23 12.3626H13.6125C14.0019 14.0109 15.4828 15.2377 17.2502 15.2377C17.7265 15.2377 18.1127 15.6238 18.1127 16.1002C18.1127 16.5765 17.7265 16.9627 17.2502 16.9627C15.111 16.9627 13.2591 15.7332 12.3626 13.9423V23Z" fill="white"/>
<path d="M23 10.6375C22.9953 5.78631 22.9085 3.27629 21.3161 1.68391C19.7237 0.0915193 17.2137 0.00472662 12.3626 0V5.65069C12.8668 5.24706 13.4614 4.94548 14.1191 4.78103C16.5953 4.16202 18.838 6.40481 18.219 8.88084C18.0545 9.53868 17.753 10.1334 17.3493 10.6375H23Z" fill="white"/>
<path d="M8.46245 6.45456C9.74074 6.77413 10.6375 7.92267 10.6375 9.24025V10.6375H9.24025C7.92267 10.6375 6.77413 9.74074 6.45456 8.46245C6.1514 7.24982 7.24982 6.1514 8.46245 6.45456Z" fill="white"/>
<path d="M12.3626 9.24025V10.6375H13.7597C15.0773 10.6375 16.2259 9.74074 16.5455 8.46245C16.8486 7.24982 15.7502 6.1514 14.5376 6.45456C13.2593 6.77413 12.3626 7.92267 12.3626 9.24025Z" fill="white"/>
</svg>
